<svg xmlns="http://www.w3.org/2000/svg" xmlns:xlink="http://www.w3.org/1999/xlink" width="1200" zoomAndPan="magnify" viewBox="0 0 54 54" height="1400" preserveAspectRatio="xMidYMid meet" version="1.0"><defs><clipPath id="6cd63798fc"><path d="M 0.492188 0 L 53.507812 0 L 53.507812 53.019531 L 0.492188 53.019531 Z M 0.492188 0 " clip-rule="nonzero"/></clipPath><clipPath id="63c3ca599e"><path d="M 4.910156 20.050781 L 53.507812 20.050781 L 53.507812 53.019531 L 4.910156 53.019531 Z M 4.910156 20.050781 " clip-rule="nonzero"/></clipPath><clipPath id="f2dde237c3"><path d="M 26 42 L 53.507812 42 L 53.507812 53.019531 L 26 53.019531 Z M 26 42 " clip-rule="nonzero"/></clipPath></defs><g clip-path="url(#6cd63798fc)"><path fill="#ffffff" d="M 0.492188 0 L 884.128906 0 L 884.128906 1030.910156 L 0.492188 1030.910156 Z M 0.492188 0 " fill-opacity="1" fill-rule="nonzero"/><path fill="#ffffff" d="M 0.492188 0 L 884.128906 0 L 884.128906 1030.910156 L 0.492188 1030.910156 Z M 0.492188 0 " fill-opacity="1" fill-rule="nonzero"/></g><g clip-path="url(#63c3ca599e)"><path fill="#1e4395" d="M 873.917969 454.550781 C 873.917969 482.5625 841.460938 507.027344 836.222656 533.503906 C 830.828125 560.789062 851.351562 595.773438 840.945312 620.875 C 830.351562 646.417969 790.996094 656.59375 775.796875 679.296875 C 760.484375 702.167969 766.046875 742.402344 746.652344 761.796875 C 727.257812 781.1875 687.027344 775.628906 664.148438 790.941406 C 641.449219 806.136719 631.269531 845.496094 605.734375 856.085938 C 580.632812 866.496094 545.644531 845.972656 518.363281 851.367188 C 491.886719 856.605469 467.421875 889.058594 439.410156 889.058594 C 411.398438 889.058594 386.933594 856.605469 360.457031 851.367188 C 333.171875 845.972656 298.1875 866.492188 273.085938 856.082031 C 247.546875 845.496094 237.367188 806.136719 214.667969 790.941406 C 191.792969 775.628906 151.558594 781.1875 132.164062 761.796875 C 112.773438 742.398438 118.332031 702.167969 103.019531 679.292969 C 87.820312 656.59375 48.464844 646.414062 37.875 620.875 C 27.46875 595.773438 47.988281 560.789062 42.59375 533.503906 C 37.359375 507.027344 4.902344 482.5625 4.902344 454.550781 C 4.902344 426.539062 37.359375 402.074219 42.59375 375.597656 C 47.988281 348.316406 27.46875 313.328125 37.875 288.226562 C 48.464844 262.6875 87.824219 252.511719 103.019531 229.808594 C 118.332031 206.933594 112.773438 166.699219 132.164062 147.308594 C 151.5625 127.914062 191.792969 133.476562 214.671875 118.164062 C 237.367188 102.960938 247.550781 63.609375 273.085938 53.015625 C 298.1875 42.609375 333.171875 63.132812 360.457031 57.738281 C 386.933594 52.5 411.398438 20.042969 439.410156 20.042969 C 467.421875 20.042969 491.886719 52.5 518.363281 57.738281 C 545.644531 63.132812 580.632812 42.609375 605.734375 53.015625 C 631.273438 63.609375 641.449219 102.964844 664.152344 118.164062 C 687.027344 133.476562 727.261719 127.914062 746.652344 147.308594 C 766.046875 166.703125 760.484375 206.933594 775.796875 229.8125 C 790.996094 252.511719 830.351562 262.691406 840.945312 288.226562 C 851.355469 313.328125 830.828125 348.316406 836.222656 375.597656 C 841.460938 402.074219 873.917969 426.539062 873.917969 454.550781 " fill-opacity="1" fill-rule="nonzero"/></g><g clip-path="url(#f2dde237c3)"><path fill="#ffffff" d="M 350.34375 819.527344 C 355.972656 819.527344 361.394531 820.035156 366.457031 821.039062 C 384.609375 824.628906 399.679688 834.941406 412.980469 844.042969 C 421.683594 849.996094 433.582031 858.144531 439.410156 858.144531 C 445.238281 858.144531 457.136719 849.996094 465.828125 844.054688 C 479.140625 834.941406 494.210938 824.628906 512.363281 821.039062 C 517.496094 820.023438 522.765625 819.527344 528.476562 819.527344 C 541.417969 819.527344 553.539062 822.070312 565.261719 824.523438 C 574.203125 826.394531 582.628906 828.15625 588.945312 828.15625 C 591.917969 828.15625 593.316406 827.761719 593.886719 827.523438 C 599.011719 825.402344 606.808594 813.429688 612.5 804.6875 C 621.363281 791.078125 631.40625 775.652344 646.949219 765.25 C 662.625 754.757812 680.8125 751.324219 696.855469 748.296875 C 707.039062 746.378906 720.976562 743.746094 724.789062 739.933594 C 728.601562 736.125 731.230469 722.191406 733.152344 712.015625 C 736.183594 695.953125 739.613281 677.765625 750.105469 662.09375 C 760.511719 646.550781 775.9375 636.503906 789.546875 627.640625 C 798.292969 621.945312 810.261719 614.152344 812.382812 609.03125 C 814.371094 604.234375 811.488281 590.464844 809.382812 580.410156 C 806.015625 564.355469 802.207031 546.160156 805.894531 527.503906 C 809.480469 509.355469 819.796875 494.289062 828.898438 480.988281 C 834.851562 472.289062 843 460.382812 843 454.550781 C 843 448.71875 834.851562 436.816406 828.898438 428.121094 C 819.800781 414.824219 809.484375 399.75 805.894531 381.597656 C 802.207031 362.949219 806.015625 344.75 809.382812 328.691406 C 811.488281 318.640625 814.375 304.871094 812.382812 300.074219 C 810.257812 294.949219 798.289062 287.15625 789.546875 281.460938 C 775.9375 272.597656 760.511719 262.554688 750.109375 247.011719 C 739.617188 231.339844 736.183594 213.152344 733.15625 197.105469 C 731.234375 186.921875 728.605469 172.988281 724.792969 169.167969 C 720.976562 165.359375 707.046875 162.730469 696.871094 160.808594 C 680.808594 157.777344 662.625 154.347656 646.949219 143.855469 C 631.410156 133.449219 621.363281 118.023438 612.503906 104.414062 C 606.808594 95.667969 599.011719 83.703125 593.890625 81.578125 C 593.320312 81.34375 591.917969 80.945312 588.945312 80.945312 C 582.621094 80.945312 574.195312 82.710938 565.273438 84.578125 C 553.542969 87.039062 541.421875 89.574219 528.472656 89.574219 C 522.847656 89.574219 517.425781 89.070312 512.363281 88.070312 C 494.210938 84.476562 479.140625 74.160156 465.839844 65.0625 C 457.144531 59.109375 445.242188 50.960938 439.410156 50.960938 C 433.578125 50.960938 421.675781 59.109375 412.980469 65.0625 C 399.679688 74.160156 384.609375 84.476562 366.457031 88.070312 C 361.320312 89.085938 356.050781 89.574219 350.347656 89.574219 C 337.40625 89.574219 325.285156 87.039062 313.5625 84.582031 C 304.628906 82.710938 296.203125 80.945312 289.875 80.945312 C 286.902344 80.945312 285.5 81.34375 284.929688 81.578125 C 279.804688 83.703125 272.011719 95.671875 266.320312 104.414062 C 257.457031 118.023438 247.414062 133.445312 231.867188 143.851562 C 216.199219 154.34375 198.011719 157.777344 181.960938 160.804688 C 171.78125 162.726562 157.84375 165.355469 154.027344 169.167969 C 150.21875 172.984375 147.585938 186.917969 145.664062 197.089844 C 142.636719 213.152344 139.203125 231.335938 128.714844 247.011719 C 118.308594 262.550781 102.882812 272.597656 89.273438 281.457031 C 80.527344 287.15625 68.5625 294.949219 66.4375 300.074219 C 64.445312 304.867188 67.328125 318.632812 69.4375 328.683594 C 72.800781 344.746094 76.613281 362.945312 72.925781 381.597656 C 69.332031 399.75 59.019531 414.824219 49.917969 428.121094 C 43.96875 436.816406 35.816406 448.71875 35.816406 454.550781 C 35.816406 460.378906 43.96875 472.285156 49.914062 480.976562 C 59.019531 494.28125 69.332031 509.351562 72.925781 527.503906 C 76.613281 546.152344 72.800781 564.351562 69.4375 580.40625 C 67.332031 590.464844 64.445312 604.230469 66.4375 609.03125 C 68.5625 614.152344 80.527344 621.945312 89.265625 627.636719 C 102.882812 636.503906 118.304688 646.546875 128.710938 662.09375 C 139.199219 677.761719 142.632812 695.949219 145.660156 711.992188 C 147.582031 722.175781 150.214844 736.117188 154.027344 739.933594 C 157.839844 743.746094 171.78125 746.378906 181.957031 748.296875 C 198.019531 751.328125 216.203125 754.761719 231.867188 765.25 C 247.410156 775.652344 257.457031 791.078125 266.316406 804.6875 C 272.007812 813.425781 279.804688 825.398438 284.929688 827.523438 C 285.5 827.761719 286.902344 828.15625 289.875 828.15625 C 296.191406 828.15625 304.613281 826.394531 313.527344 824.527344 C 325.269531 822.070312 337.394531 819.527344 350.34375 819.527344 Z M 439.410156 866.972656 C 430.851562 866.972656 419.238281 859.027344 408.003906 851.34375 C 395.394531 842.714844 381.113281 832.945312 364.742188 829.703125 C 360.242188 828.8125 355.398438 828.363281 350.34375 828.363281 C 338.308594 828.363281 326.644531 830.804688 315.359375 833.171875 C 305.964844 835.136719 297.109375 836.992188 289.875 836.992188 C 286.394531 836.992188 283.667969 836.566406 281.546875 835.683594 C 273.894531 832.511719 266.28125 820.816406 258.917969 809.507812 C 250.515625 796.613281 240.996094 781.988281 226.953125 772.589844 C 212.789062 763.105469 195.546875 759.851562 180.335938 756.980469 C 167.148438 754.492188 153.523438 751.921875 147.785156 746.175781 C 142.039062 740.4375 139.464844 726.808594 136.980469 713.636719 C 134.109375 698.417969 130.855469 681.175781 121.371094 667.007812 C 111.972656 652.964844 97.351562 643.441406 84.449219 635.046875 C 73.140625 627.679688 61.445312 620.0625 58.277344 612.417969 C 55.242188 605.09375 58.0625 591.625 60.792969 578.601562 C 63.984375 563.367188 67.597656 546.105469 64.261719 529.21875 C 61.019531 512.847656 51.246094 498.570312 42.628906 485.972656 C 34.9375 474.730469 26.988281 463.113281 26.988281 454.550781 C 26.988281 445.988281 34.9375 434.367188 42.628906 423.132812 C 51.246094 410.535156 61.019531 396.253906 64.261719 379.882812 C 67.601562 362.996094 63.984375 345.734375 60.792969 330.5 C 58.0625 317.472656 55.242188 304.007812 58.277344 296.6875 C 61.445312 289.039062 73.136719 281.425781 84.445312 274.0625 C 97.351562 265.65625 111.972656 256.136719 121.371094 242.09375 C 130.859375 227.925781 134.113281 210.679688 136.984375 195.464844 C 139.46875 182.28125 142.042969 168.664062 147.785156 162.921875 C 153.523438 157.183594 167.148438 154.609375 180.324219 152.121094 C 195.539062 149.253906 212.785156 146 226.953125 136.511719 C 240.996094 127.113281 250.519531 112.492188 258.917969 99.59375 C 266.28125 88.285156 273.894531 76.59375 281.546875 73.417969 C 283.667969 72.539062 286.394531 72.113281 289.875 72.113281 C 297.117188 72.113281 305.980469 73.96875 315.363281 75.933594 C 326.652344 78.300781 338.324219 80.742188 350.347656 80.742188 C 355.46875 80.742188 360.175781 80.304688 364.742188 79.402344 C 381.113281 76.164062 395.394531 66.390625 407.992188 57.769531 C 419.226562 50.078125 430.84375 42.128906 439.410156 42.128906 C 447.96875 42.128906 459.59375 50.078125 470.828125 57.769531 C 483.425781 66.390625 497.703125 76.164062 514.078125 79.402344 C 518.578125 80.289062 523.421875 80.742188 528.472656 80.742188 C 540.503906 80.742188 552.171875 78.300781 563.460938 75.933594 C 572.84375 73.96875 581.707031 72.113281 588.945312 72.113281 C 592.425781 72.113281 595.152344 72.539062 597.273438 73.417969 C 604.921875 76.59375 612.535156 88.28125 619.898438 99.589844 C 628.304688 112.492188 637.824219 127.113281 651.867188 136.515625 C 666.035156 146 683.28125 149.253906 698.496094 152.125 C 711.679688 154.613281 725.300781 157.1875 731.039062 162.925781 C 736.78125 168.664062 739.351562 182.289062 741.835938 195.464844 C 744.707031 210.679688 747.960938 227.925781 757.449219 242.097656 C 766.847656 256.140625 781.46875 265.660156 794.367188 274.058594 C 805.675781 281.421875 817.371094 289.035156 820.542969 296.691406 C 823.578125 304.007812 820.757812 317.476562 818.027344 330.503906 C 814.835938 345.738281 811.222656 363 814.558594 379.882812 C 817.796875 396.253906 827.566406 410.535156 836.191406 423.132812 C 843.882812 434.367188 851.832031 445.988281 851.832031 454.550781 C 851.832031 463.113281 843.882812 474.734375 836.191406 485.972656 C 827.566406 498.574219 817.796875 512.851562 814.558594 529.21875 C 811.222656 546.109375 814.835938 563.367188 818.027344 578.601562 C 820.757812 591.625 823.578125 605.097656 820.542969 612.417969 C 817.371094 620.0625 805.683594 627.679688 794.375 635.039062 C 781.46875 643.445312 766.847656 652.96875 757.445312 667.011719 C 747.960938 681.175781 744.707031 698.421875 741.835938 713.636719 C 739.347656 726.824219 736.777344 740.441406 731.035156 746.179688 C 725.292969 751.925781 711.671875 754.496094 698.496094 756.980469 C 683.285156 759.847656 666.039062 763.101562 651.863281 772.589844 C 637.820312 781.988281 628.304688 796.613281 619.902344 809.511719 C 612.539062 820.820312 604.921875 832.515625 597.269531 835.683594 C 595.15625 836.566406 592.433594 836.996094 588.945312 836.996094 C 581.710938 836.996094 572.855469 835.140625 563.476562 833.175781 C 552.167969 830.804688 540.5 828.363281 528.476562 828.363281 C 523.347656 828.363281 518.636719 828.796875 514.078125 829.703125 C 497.703125 832.945312 483.425781 842.714844 470.828125 851.332031 C 459.582031 859.027344 447.96875 866.972656 439.410156 866.972656 " fill-opacity="1" fill-rule="nonzero"/></g></svg>